<svg width="30" height="27" viewBox="0 0 30 27" fill="none" xmlns="http://www.w3.org/2000/svg">
<path d="M17.6513 11.7368C19.1158 13.2431 19.1158 15.6853 17.6513 17.1916C16.1868 18.6979 13.8124 18.6979 12.3479 17.1916C10.8834 15.6853 10.8834 13.2431 12.3479 11.7368C13.8124 10.2305 16.1868 10.2305 17.6513 11.7368" fill="#989898"/>
<path d="M26.2499 3.85715H23.6588L21.7829 0H8.21527L6.3411 3.85905L3.75375 3.86378C1.69102 3.86758 0.0118537 5.5965 0.0100726 7.71904L0 23.1419C0 25.2692 1.68187 27 3.75012 27H26.2499C28.3181 27 30 25.2701 30 23.1428V7.71424C29.9999 5.58702 28.3181 3.85715 26.2499 3.85715V3.85715ZM14.9995 22.1785C10.8639 22.1785 7.49926 18.7179 7.49926 14.4642C7.49926 10.2106 10.8639 6.74994 14.9995 6.74994C19.1351 6.74994 22.4998 10.2106 22.4998 14.4642C22.4998 18.7179 19.1351 22.1785 14.9995 22.1785V22.1785Z" fill="#989898"/>
</svg>
