<svg width="60" height="60" viewBox="0 0 60 60" fill="none" xmlns="http://www.w3.org/2000/svg">
<path d="M0 30.0007C0 46.5705 13.4304 60.0005 29.9995 60C46.5696 60.0005 60 46.5705 60 30.0007C60.0011 13.4309 46.5696 0 29.9995 0C13.4304 0 0 13.4313 0 30.0007Z" fill="#FA6E51"/>
<path d="M59.9289 31.9673L45.9332 17.9716H45.933L38.6996 10.7382C38.6254 10.6637 38.5363 10.6044 38.4377 10.5632C38.3397 10.5221 38.2335 10.5 38.125 10.5H23.5C23.0514 10.5 22.6875 10.8639 22.6875 11.3125V15.375H13.75C13.3014 15.375 12.9375 15.7387 12.9375 16.1875V48.6874C12.9375 48.9625 13.0832 49.1937 13.2922 49.3406C13.3465 49.4177 22.99 59.0612 23.0671 59.1155C23.0925 59.1517 23.1287 59.1765 23.1588 59.2072C25.357 59.7202 27.645 60 29.9994 59.9999C45.9082 60.0005 58.9151 47.6193 59.9289 31.9673Z" fill="#E8573F"/>
<path d="M46.9993 19.1247C46.9581 19.026 46.8987 18.9372 46.8243 18.8627L38.6998 10.7382C38.6254 10.6638 38.5365 10.6044 38.4378 10.5632C38.3396 10.5221 38.2335 10.5 38.125 10.5H23.5C23.0512 10.5 22.6875 10.8637 22.6875 11.3125V15.375H13.75C13.3012 15.375 12.9375 15.7388 12.9375 16.1875V48.6874C12.9375 49.1361 13.3012 49.4999 13.75 49.4999H36.4999C36.9486 49.4999 37.3124 49.1361 37.3124 48.6874V44.625H46.2499C46.6986 44.625 47.0624 44.2613 47.0624 43.8125V19.4375C47.0625 19.329 47.0404 19.2229 46.9993 19.1247ZM38.9375 13.2738L44.2887 18.625H38.9375V13.2738ZM35.6875 47.875H14.5625V17H27.5625V24.3125C27.5625 24.7613 27.9262 25.125 28.375 25.125H35.6875V47.875ZM34.5387 23.5H29.1875V18.1488L34.5387 23.5ZM37.3125 43V24.3125C37.3125 24.204 37.2903 24.098 37.2493 23.9997C37.2081 23.901 37.1487 23.8122 37.0743 23.7377L28.9498 15.6132C28.8754 15.5388 28.7865 15.4794 28.6878 15.4382C28.5896 15.3971 28.4835 15.375 28.375 15.375H24.3124V12.125H37.3125V19.4375C37.3125 19.8863 37.6763 20.25 38.125 20.25H45.4375V43H37.3125Z" fill="#F4F6F9"/>
</svg>
