<svg width="28" height="27" viewBox="0 0 28 27" fill="none" xmlns="http://www.w3.org/2000/svg">
<path d="M22.7131 17.6061C20.9871 17.6061 19.4535 18.3698 18.4979 19.5454L10.2705 15.7169C10.4085 15.2899 10.483 14.8384 10.483 14.3712C10.483 13.7385 10.3467 13.1343 10.1001 12.5813L18.7229 7.86381C19.685 8.89207 21.1167 9.54545 22.7131 9.54545C25.6032 9.54545 27.9545 7.40441 27.9545 4.77273C27.9545 2.14105 25.6032 0 22.7131 0C19.8229 0 17.4716 2.14105 17.4716 4.77273C17.4716 5.38098 17.5974 5.96289 17.8263 6.49833L9.1819 11.2276C8.2205 10.2297 6.81048 9.59848 5.24148 9.59848C2.35133 9.59848 0 11.7395 0 14.3712C0 17.0029 2.35133 19.1439 5.24148 19.1439C6.99574 19.1439 8.5513 18.3551 9.50321 17.1465L17.7067 20.9639C17.5539 21.4111 17.4716 21.8863 17.4716 22.3788C17.4716 25.0105 19.8229 27.1515 22.7131 27.1515C25.6032 27.1515 27.9545 25.0105 27.9545 22.3788C27.9545 19.7471 25.6032 17.6061 22.7131 17.6061ZM22.7131 1.59091C24.6398 1.59091 26.2074 3.01827 26.2074 4.77273C26.2074 6.52718 24.6398 7.95455 22.7131 7.95455C20.7863 7.95455 19.2188 6.52718 19.2188 4.77273C19.2188 3.01827 20.7863 1.59091 22.7131 1.59091ZM5.24148 17.553C3.31471 17.553 1.74716 16.1257 1.74716 14.3712C1.74716 12.6168 3.31471 11.1894 5.24148 11.1894C7.16824 11.1894 8.7358 12.6168 8.7358 14.3712C8.7358 16.1257 7.16824 17.553 5.24148 17.553ZM22.7131 25.5606C20.7863 25.5606 19.2188 24.1332 19.2188 22.3788C19.2188 20.6243 20.7863 19.197 22.7131 19.197C24.6398 19.197 26.2074 20.6243 26.2074 22.3788C26.2074 24.1332 24.6398 25.5606 22.7131 25.5606Z" fill="white"/>
</svg>
