<svg width="60" height="60" viewBox="0 0 60 60" fill="none" xmlns="http://www.w3.org/2000/svg">
<path d="M30 60C46.5685 60 60 46.5685 60 30C60 13.4315 46.5685 0 30 0C13.4315 0 0 13.4315 0 30C0 46.5685 13.4315 60 30 60Z" fill="#4D76A1"/>
<path fill-rule="evenodd" clip-rule="evenodd" d="M28.8669 43.1577H31.2215C31.2215 43.1577 31.9328 43.0796 32.2959 42.6881C32.6301 42.3288 32.6194 41.6539 32.6194 41.6539C32.6194 41.6539 32.5734 38.4944 34.0398 38.0292C35.4853 37.5709 37.3415 41.0827 39.309 42.4331C40.7967 43.455 41.9272 43.2309 41.9272 43.2309L47.1879 43.1577C47.1879 43.1577 49.9398 42.9882 48.635 40.8244C48.528 40.6474 47.875 39.2239 44.7236 36.2986C41.4251 33.237 41.8668 33.7322 45.8402 28.4363C48.2601 25.2111 49.2275 23.242 48.9254 22.3987C48.6371 21.5954 46.8574 21.8077 46.8574 21.8077L40.9342 21.8446C40.9342 21.8446 40.4951 21.7847 40.1694 21.9794C39.8512 22.1703 39.6464 22.6152 39.6464 22.6152C39.6464 22.6152 38.7089 25.1111 37.4586 27.2336C34.8211 31.7124 33.7665 31.9487 33.3355 31.6706C32.3328 31.0225 32.5831 29.0668 32.5831 27.6775C32.5831 23.3372 33.2414 21.5275 31.3012 21.059C30.6573 20.9034 30.1835 20.8007 28.5369 20.7842C26.4235 20.7622 24.6346 20.7906 23.6218 21.2869C22.948 21.6168 22.4281 22.3521 22.7447 22.3944C23.1362 22.4468 24.0229 22.6334 24.4929 23.2736C25.0999 24.0993 25.0785 25.9539 25.0785 25.9539C25.0785 25.9539 25.4272 31.0631 24.264 31.6979C23.4656 32.1332 22.3704 31.2444 20.019 27.1812C18.8141 25.0998 17.9045 22.7992 17.9045 22.7992C17.9045 22.7992 17.729 22.3692 17.4162 22.1393C17.0365 21.8607 16.506 21.7719 16.506 21.7719L10.8775 21.8088C10.8775 21.8088 10.0325 21.8323 9.72235 22.1997C9.4464 22.5265 9.70042 23.2024 9.70042 23.2024C9.70042 23.2024 14.107 33.5119 19.0965 38.7073C23.6715 43.4705 28.8669 43.1577 28.8669 43.1577Z" fill="white"/>
</svg>
